<svg width="19" height="11" viewBox="0 0 19 11" fill="none" xmlns="http://www.w3.org/2000/svg">
<path d="M9.49005 10C6.15163 10 3.00079 8.38825 1.06039 5.68634C0.97987 5.57488 0.97987 5.42512 1.06039 5.31366C2.99991 2.61262 6.15163 1 9.49005 1C12.8285 1 15.9996 2.61262 17.9401 5.31366C18.0206 5.42512 18.0206 5.57488 17.9401 5.68634C15.9996 8.38738 12.8409 9.99913 9.49005 9.99913V10ZM1.73373 5.5C3.56 7.91805 6.44273 9.35478 9.49093 9.35478C12.5391 9.35478 15.4404 7.91805 17.2676 5.5C15.4404 3.08195 12.5515 1.64522 9.49005 1.64522C6.42858 1.64522 3.55911 3.08195 1.73373 5.5Z" fill="white" stroke="white" stroke-width="0.5"/>
<path d="M9.48913 8.27241C7.93539 8.27241 6.67188 7.02899 6.67188 5.50084C6.67188 3.97269 7.93539 2.72839 9.48913 2.72839C11.0429 2.72839 12.3064 3.97181 12.3064 5.50084C12.3064 7.02986 11.0429 8.27241 9.48913 8.27241ZM9.48913 3.37274C8.29728 3.37274 7.32752 4.32708 7.32752 5.49997C7.32752 6.67286 8.29728 7.62719 9.48913 7.62719C10.681 7.62719 11.6507 6.67286 11.6507 5.49997C11.6507 4.32708 10.681 3.37274 9.48913 3.37274Z" fill="white" stroke="white" stroke-width="0.5"/>
</svg>
