<svg width="16" height="17" viewBox="0 0 16 17" fill="none" xmlns="http://www.w3.org/2000/svg">
<g opacity="0.5" clip-path="url(#clip0_14_70)">
<path d="M13.4037 7.84818H11.0796C11.0606 7.82415 11.046 7.81446 11.046 7.80477C11.0468 7.17325 11.0234 6.54019 11.0574 5.91062C11.0909 5.29074 11.4237 5.00077 12.0554 4.97789C12.4615 4.96355 12.8684 4.96898 13.2753 4.96588C13.3409 4.96549 13.4063 4.96588 13.4822 4.96588C13.4895 4.8992 13.4993 4.84996 13.4997 4.80073C13.5008 4.14945 13.4971 3.49817 13.503 2.84727C13.5044 2.70965 13.4712 2.64879 13.3336 2.64685C12.5885 2.63793 11.8393 2.56156 11.0997 2.62281C9.70538 2.73873 8.68146 3.86451 8.576 5.35509C8.52346 6.09903 8.54608 6.84916 8.53513 7.59659C8.53404 7.67218 8.53513 7.74778 8.53513 7.84121H6.46977V10.406H8.52236V16.9991C8.45266 16.9991 8.38771 16.9991 8.32312 16.9991C5.88337 16.9991 3.44361 16.9991 1.00422 16.9991C0.349579 16.9991 0.00072981 16.6312 0.00072981 15.94C0 10.9821 0 6.02421 0 1.06594C0 0.369301 0.341551 0.00760667 0.999475 0.00760667C5.66041 0.007219 10.321 0.0134217 14.9819 -0.000146685C15.6227 -0.00208502 16.0011 0.473583 16 1.07718C15.9894 6.02886 15.9942 10.9805 15.9938 15.9318C15.9938 16.6203 15.6387 16.9987 14.9932 16.9991C13.7431 16.9999 12.4929 16.9991 11.2427 16.9991C11.1833 16.9991 11.1238 16.9991 11.0512 16.9991V10.4165C11.2865 10.4165 11.5153 10.4165 11.7441 10.4165C12.1506 10.4165 12.5575 10.4153 12.964 10.4173C13.0501 10.4173 13.1107 10.4114 13.1245 10.2913C13.2158 9.50469 13.3143 8.71927 13.4099 7.93347C13.4121 7.91486 13.4073 7.89548 13.4037 7.8478V7.84818Z" fill="white"/>
</g>
<defs>
<clipPath id="clip0_14_70">
<rect width="16" height="17" fill="white"/>
</clipPath>
</defs>
</svg>
