<svg width="17" height="17" viewBox="0 0 17 17" fill="none" xmlns="http://www.w3.org/2000/svg">
<g opacity="0.5" clip-path="url(#clip0_14_67)">
<path d="M0.00313801 8.49965C0.00313801 6.16994 0.00730877 3.84057 9.94389e-06 1.51121C-0.00138031 1.02323 0.142858 0.615189 0.526568 0.30551C0.752484 0.123387 1.00968 0.0146001 1.30441 0.0086915C1.37949 0.00730125 1.45456 0.00347806 1.52963 0.00347806C6.18281 0.0031305 10.8363 0.00556344 15.4895 2.42931e-06C15.9848 -0.000692697 16.3956 0.147717 16.7056 0.540115C16.8818 0.763251 16.9858 1.01628 16.9924 1.30406C16.9941 1.37322 16.9962 1.44274 16.9962 1.51225C16.9962 6.17133 16.9941 10.8304 16.9997 15.4895C17.0004 15.9851 16.8516 16.3956 16.4599 16.7056C16.2371 16.8818 15.9841 16.9861 15.696 16.9927C15.6268 16.9944 15.5573 16.9965 15.4878 16.9965C10.8287 16.9965 6.1696 16.9944 1.51052 17C1.00794 17.0007 0.593647 16.8471 0.283621 16.4467C0.117486 16.2319 0.01426 15.9889 0.00904658 15.7137C0.00348557 15.4304 0.00313801 15.1471 0.00313801 14.8642C0.00279045 12.7427 0.00313801 10.6215 0.00313801 8.5V8.49965ZM7.17997 6.95926V13.1215C7.25191 13.125 7.31378 13.1302 7.37564 13.1302C7.84972 13.1309 8.3238 13.1306 8.79752 13.1306C8.97316 13.1306 9.06109 13.0428 9.06132 12.8671C9.06306 11.7629 9.06063 10.6591 9.06862 9.55486C9.07279 8.99424 9.31887 8.67969 9.82666 8.56604C9.97194 8.53372 10.1238 8.51634 10.2726 8.51599C10.8388 8.5153 11.1377 8.80794 11.1603 9.37516C11.1676 9.56007 11.1721 9.74497 11.1724 9.92988C11.1735 10.9183 11.1724 11.9068 11.1728 12.8953C11.1728 13.1302 11.1742 13.1302 11.4129 13.1302C11.8349 13.1302 12.2568 13.1302 12.6788 13.1302C12.7983 13.1302 12.9182 13.1302 13.0482 13.1302C13.0527 13.0534 13.059 12.9971 13.059 12.9408C13.0593 11.8484 13.0652 10.7557 13.0555 9.66329C13.052 9.27194 13.0357 8.87711 12.9794 8.49062C12.8856 7.84658 12.5894 7.32593 11.9312 7.10697C11.3316 6.90747 10.7192 6.89391 10.1082 7.06248C9.6925 7.17718 9.34494 7.4017 9.06098 7.78472C9.06098 7.5383 9.05576 7.3374 9.06271 7.13651C9.06723 7.00548 9.02761 6.95265 8.88581 6.95578C8.4583 6.96447 8.03045 6.95891 7.6026 6.95891C7.46566 6.95891 7.32837 6.95891 7.17997 6.95891V6.95926ZM4.13288 6.9596V13.1309C4.67126 13.1309 5.19642 13.1309 5.72124 13.1309C5.91101 13.1309 6.0059 13.0385 6.0059 12.8536C6.0059 10.9823 6.0059 9.11102 6.0059 7.23974C6.0059 7.1876 6.0205 7.12852 6.00034 7.08577C5.9767 7.03607 5.92283 6.96551 5.88112 6.96516C5.30382 6.95717 4.72652 6.95995 4.13288 6.95995V6.9596ZM3.97648 4.93609C3.97439 5.54502 4.44569 6.03161 5.04697 6.03995C5.62984 6.04829 6.14458 5.53911 6.14701 4.95277C6.14944 4.36192 5.66598 3.87498 5.072 3.87012C4.45194 3.8649 3.97891 4.32508 3.97648 4.93609Z" fill="white"/>
</g>
<defs>
<clipPath id="clip0_14_67">
<rect width="17" height="17" fill="white"/>
</clipPath>
</defs>
</svg>
