<svg width="21" height="22" viewBox="0 0 21 22" fill="none" xmlns="http://www.w3.org/2000/svg">
<path d="M4.11307 4.59556L3.1162 3.98444C2.51807 3.66667 1.77042 3.86222 1.42151 4.44889M4.11307 4.59556L1.64581 13.1756C1.8701 13.0533 1.99471 12.8089 1.94487 12.54C1.72057 11.5133 1.72057 10.4622 1.94487 9.43556C1.99471 9.19111 1.8701 8.92222 1.64581 8.8M4.11307 4.59556C4.33737 4.71778 4.63643 4.69333 4.83581 4.52222M4.11307 4.59556L4.83581 4.52222M1.42151 4.44889L0.175417 6.57556C0.000963785 6.84444 -0.04888 7.18667 0.0508075 7.48C0.150495 7.79778 0.34987 8.04222 0.624011 8.21333M1.42151 4.44889L1.85291 4.70166L1.85198 4.70325M1.42151 4.44889L1.85125 4.70447C1.8515 4.70406 1.85174 4.70366 1.85198 4.70325M0.624011 8.21333L1.64581 8.8M0.624011 8.21333L0.87297 7.77972L0.881731 7.78475M0.624011 8.21333L0.888758 7.78918C0.886405 7.78771 0.884063 7.78623 0.881731 7.78475M1.64581 8.8L1.88505 8.36095C1.88694 8.36198 1.88883 8.36302 1.89071 8.36406M1.64581 8.8L1.89477 8.36639L1.89071 8.36406M1.85198 4.70325C2.05835 4.3577 2.50238 4.23242 2.86957 4.41973L3.85175 5.02183L3.86263 5.0285L3.87383 5.0346C4.27231 5.25174 4.79527 5.21339 5.1581 4.9045C5.93243 4.26059 6.80013 3.77763 7.73956 3.45513L7.74978 3.45162L7.75983 3.44768C8.16992 3.28678 8.50089 2.9011 8.50089 2.39556V1.22222C8.50089 0.822994 8.81615 0.5 9.24698 0.5H11.7392C12.17 0.5 12.4853 0.822994 12.4853 1.22222V2.39556C12.4853 2.9011 12.8162 3.28678 13.2263 3.44768L13.2364 3.45162L13.2466 3.45513C14.179 3.77524 15.0492 4.28054 15.832 4.90786C16.1947 5.21366 16.7153 5.25095 17.1123 5.0346L17.1124 5.03471L17.122 5.02917L18.1432 4.44287C18.1432 4.44287 18.1432 4.44286 18.1432 4.44285C18.5062 4.23517 18.9506 4.35421 19.159 4.70316C19.1593 4.7036 19.1596 4.70403 19.1598 4.70447L20.4043 6.82833L20.41 6.83815L20.4162 6.84769C20.4983 6.97427 20.5243 7.16608 20.4758 7.35651L20.4757 7.35649L20.4736 7.36549C20.4389 7.51267 20.3281 7.65889 20.1295 7.78467L19.1163 8.36639L19.1037 8.3736L19.0916 8.38153C18.7218 8.62333 18.4832 9.05796 18.5746 9.55113L18.576 9.55895L18.5777 9.56672C18.7867 10.5231 18.7867 11.5014 18.5777 12.4577L18.5777 12.4577L18.5763 12.4645C18.4825 12.9243 18.7088 13.4084 19.1204 13.636L20.1381 14.2203L20.1446 14.224L20.1512 14.2275C20.2849 14.299 20.4079 14.4435 20.4774 14.6519C20.5163 14.8349 20.4903 15.0241 20.4158 15.1945L19.1847 17.2955C19.1845 17.296 19.1842 17.2964 19.1839 17.2969C18.9755 17.6458 18.5311 17.7648 18.1681 17.5571L17.147 16.9708L17.147 16.9707L17.1372 16.9654C16.7388 16.7483 16.2159 16.7866 15.8531 17.0954C15.0787 17.7394 14.211 18.2224 13.2715 18.5449L13.2613 18.5484L13.2512 18.5523C12.8411 18.7132 12.5102 19.0989 12.5102 19.6044V20.7778C12.5102 21.177 12.1949 21.5 11.7641 21.5H9.2719C8.84107 21.5 8.52581 21.177 8.52581 20.7778V19.6044C8.52581 19.0989 8.19485 18.7132 7.78475 18.5523L7.7747 18.5484L7.76448 18.5449C6.83203 18.2248 5.96183 17.7194 5.17903 17.0921C4.81636 16.7863 4.29577 16.7491 3.89875 16.9654L3.89869 16.9653L3.88904 16.9708L2.86789 17.5571C2.86779 17.5572 2.86769 17.5572 2.86759 17.5573C2.69723 17.6547 2.50583 17.6769 2.27955 17.6257C2.12196 17.59 1.97258 17.4783 1.84668 17.2877L0.606817 15.1717L0.601064 15.1619L0.59487 15.1523C0.501262 15.008 0.472929 14.8204 0.527884 14.6452L0.533342 14.6278L0.537518 14.6101C0.572147 14.4629 0.682975 14.3167 0.881604 14.1909L1.89064 13.6115C2.29821 13.3865 2.52602 12.9318 2.43649 12.4489L2.43505 12.441L2.43335 12.4333C2.22441 11.4769 2.22441 10.4986 2.43335 9.54227L2.4334 9.54228L2.43479 9.53545C2.52853 9.0757 2.3023 8.59162 1.89071 8.36406M1.85198 4.70325L0.606817 6.82833L0.601064 6.83815L0.59487 6.84769C0.497592 6.99763 0.477339 7.18118 0.524216 7.31911L0.528017 7.3303L0.527884 7.33034C0.588862 7.52472 0.706451 7.6734 0.881731 7.78475M0.881731 7.78475L1.89071 8.36406M4.83581 4.52222C5.65823 3.83778 6.58034 3.32444 7.57721 2.98222C7.82643 2.88444 8.00089 2.66444 8.00089 2.39556V1.22222C8.00089 0.537778 8.54917 0 9.24698 0H11.7392C12.437 0 12.9853 0.537778 12.9853 1.22222V2.39556C12.9853 2.66444 13.1597 2.88444 13.4089 2.98222C14.4058 3.32444 15.3279 3.86222 16.1503 4.52222C16.3497 4.69333 16.6488 4.71778 16.8731 4.59556L4.83581 4.52222ZM6.25479 11C6.25479 13.3141 8.15758 15.1667 10.4931 15.1667C12.8286 15.1667 14.7314 13.3141 14.7314 11C14.7314 8.6859 12.8286 6.83333 10.4931 6.83333C8.15758 6.83333 6.25479 8.6859 6.25479 11Z" stroke="white"/>
</svg>
