<svg width="27" height="21" viewBox="0 0 27 21" fill="none" xmlns="http://www.w3.org/2000/svg">
<path d="M13.4406 11.3344C16.3461 11.3344 18.7015 9.02093 18.7015 6.16718C18.7015 3.31342 16.3461 1 13.4406 1C10.5351 1 8.17969 3.31342 8.17969 6.16718C8.17969 9.02093 10.5351 11.3344 13.4406 11.3344Z" stroke="white" stroke-miterlimit="10"/>
<path d="M13.6789 20.3372C18.2044 20.3372 21.873 18.8561 21.873 17.0292C21.873 15.2022 18.2044 13.7212 13.6789 13.7212C9.15347 13.7212 5.48486 15.2022 5.48486 17.0292C5.48486 18.8561 9.15347 20.3372 13.6789 20.3372Z" stroke="white" stroke-miterlimit="10"/>
<path d="M19.8184 2.35672C22.1717 2.35672 24.0731 4.22427 24.0731 6.53569C24.0731 8.8471 22.1717 10.7147 19.8184 10.7147" stroke="white" stroke-miterlimit="10" stroke-linecap="round" stroke-linejoin="round"/>
<path d="M22.1201 13.1098C24.4479 13.696 25.9997 14.7345 25.9997 15.9237C25.9997 16.736 25.275 17.4814 24.0642 18.0592" stroke="white" stroke-miterlimit="10" stroke-linecap="round" stroke-linejoin="round"/>
<path d="M7.19032 2.49905C4.83698 2.49905 2.93555 4.36661 2.93555 6.67802C2.93555 8.98943 4.83698 10.857 7.19032 10.857" stroke="white" stroke-miterlimit="10" stroke-linecap="round" stroke-linejoin="round"/>
<path d="M4.8796 13.2522C2.55184 13.8384 1 14.8769 1 16.0661C1 16.8784 1.72476 17.6238 2.93554 18.2016" stroke="white" stroke-miterlimit="10" stroke-linecap="round" stroke-linejoin="round"/>
</svg>
