<svg width="15" height="15" viewBox="0 0 15 15" fill="none" xmlns="http://www.w3.org/2000/svg">
<g clip-path="url(#clip0_3_73)">
<path d="M14.6547 13.0201L11.9012 10.2687C11.7169 10.0846 11.6823 9.79676 11.8091 9.56652C12.9842 7.57496 12.9842 5.11141 11.8091 3.13137C10.0349 0.103739 6.14087 -0.897795 3.12244 0.875037C0.104008 2.65938 -0.898296 6.53889 0.875897 9.55501C2.65009 12.5711 6.5441 13.5727 9.56253 11.7998C9.79295 11.6617 10.081 11.7077 10.2653 11.8919L13.0188 14.6433C13.0303 14.6548 13.0418 14.6663 13.0418 14.6663C13.5026 15.1037 14.2284 15.0922 14.6662 14.6433C15.127 14.1828 15.1155 13.4575 14.6547 13.0201ZM6.2676 10.3954C4.0441 10.3954 2.23534 8.58801 2.23534 6.36621C2.23534 4.14442 4.0441 2.33705 6.2676 2.33705C8.4911 2.33705 10.2999 4.14442 10.2999 6.36621C10.2999 8.58801 8.4911 10.3954 6.2676 10.3954Z" fill="#898989"/>
</g>
<defs>
<clipPath id="clip0_3_73">
<rect width="15" height="15" fill="white"/>
</clipPath>
</defs>
</svg>
