<svg width="21" height="17" viewBox="0 0 21 17" fill="none" xmlns="http://www.w3.org/2000/svg">
<g opacity="0.5" clip-path="url(#clip0_14_65)">
<path d="M6.21361 13.3248C5.128 13.2401 4.18972 12.8661 3.40542 12.1528C2.86427 11.6606 2.47711 11.073 2.23284 10.3469C2.87646 10.4257 3.4885 10.4407 4.13211 10.2585C1.94538 9.60537 0.827636 8.20273 0.707442 6.04896C1.30896 6.29721 1.90716 6.50017 2.60173 6.51509C0.665901 4.91961 0.265442 3.0322 1.28736 0.835281C3.64857 3.51377 6.60632 5.03094 10.2498 5.28398C10.2293 4.88125 10.1816 4.51741 10.1977 4.15623C10.2725 2.49256 11.0679 1.23908 12.5982 0.457586C14.2089 -0.364926 16.2262 -0.0527554 17.5206 1.18581C17.6608 1.31952 17.7832 1.35308 17.9748 1.30727C18.7514 1.12295 19.4897 0.851262 20.1881 0.477829C20.2529 0.443202 20.3205 0.412838 20.4058 0.397922C20.094 1.35361 19.4825 2.09036 18.6184 2.64598L18.6445 2.70138C19.0366 2.61828 19.4337 2.55062 19.8198 2.44728C20.2048 2.34446 20.5792 2.20649 20.999 2.07065C20.9459 2.15109 20.9076 2.21395 20.8639 2.27308C20.3488 2.972 19.745 3.58942 19.0372 4.10988C18.9186 4.19724 18.8854 4.28727 18.886 4.42791C18.9053 8.14306 17.5832 11.3383 14.795 13.923C12.9012 15.6789 10.6009 16.6436 7.98715 16.9206C5.20111 17.2157 2.60173 16.6867 0.19676 15.2948C0.137495 15.2607 0.0804445 15.2234 0.0239483 15.1856C0.01564 15.1797 0.0150861 15.1632 -0.000976562 15.1174C2.31869 15.2964 4.39576 14.72 6.21306 13.3243L6.21361 13.3248Z" fill="white"/>
</g>
<defs>
<clipPath id="clip0_14_65">
<rect width="21" height="17" fill="white"/>
</clipPath>
</defs>
</svg>
